# xmcd
#
# Track frame offsets:
#	183
#	16195
#	42208
#	48425
#	67645
#	81628
#	96463
#	119550
#	135958
#	154225
#	170730
#	191818
#	206753
#	226030
#	237083
#
# Disc length: 3473 seconds
#
# Revision: 0
# Processed by: cddbd v1.5.1PL0 Copyright (c) Steve Scherf et al.
# Submitted via: dBpowerAMP V4.0
#
DISCID=c80d8f0f
DTITLE=Sea Urchins - Live In London
DYEAR=1994
DGENRE=Alternative
TTITLE0=I Don't Belong
TTITLE1=My Ship Is Going Down
TTITLE2=Jam
TTITLE3=Slow Scene
TTITLE4=Pristine Christine
TTITLE5=Please Don't Cry
TTITLE6=Low Scene
TTITLE7=Open Out
TTITLE8=Hendrix
TTITLE9=Summershine
TTITLE10=A Morning Odyssey
TTITLE11=Sullen Eyes
TTITLE12=Solace
TTITLE13=Rock'n'Roll Star
TTITLE14=Season Of The Witch
EXTD=Fierce recordings\ninfo from h.kamp
EXTT0=
EXTT1=
EXTT2=
EXTT3=
EXTT4=
EXTT5=
EXTT6=
EXTT7=
EXTT8=
EXTT9=
EXTT10=
EXTT11=
EXTT12=
EXTT13=
EXTT14=
PLAYORDER=
